# xmcd
#
# Track frame offsets: 
#        150
#        11867
#        26435
#        42350
#        55887
#        65742
#        81075
#        94792
#        108325
#        122660
#
# Disc length: 1821 seconds
#
# Revision: 2
# Processed by: cddbd v1.5.2PL0 Copyright (c) Steve Scherf et al.
# Submitted via: ExactAudioCopyFreeDBPlugin 1.0
#
DISCID=80071b0a
DTITLE=Sam Cooke - The One and Only Sam Cooke
DYEAR=1984
DGENRE=R&B
TTITLE0=Jamaica Farewell
TTITLE1=Don't Get Around Much Anymore
TTITLE2=Far Away Places
TTITLE3=Little Girl Blue
TTITLE4=The Song is Ended (But the Melody Lingers On)
TTITLE5=Bali Ha'i
TTITLE6=Trouble in Mind
TTITLE7=They Call the Wind Maria
TTITLE8=Swing Low, Sweet Chariot
TTITLE9=Since I Met You Baby
EXTD=
EXTT0=
EXTT1=
EXTT2=
EXTT3=
EXTT4=
EXTT5=
EXTT6=
EXTT7=
EXTT8=
EXTT9=
PLAYORDER=
